<svg width="375" height="812" viewBox="0 0 375 812" fill="none" xmlns="http://www.w3.org/2000/svg">
<path d="M422.515 772.578L732.442 593.642L671.853 488.698C598.371 534.627 535.647 593.76 485.161 664.766C461.041 698.699 440.123 734.709 422.515 772.578Z" fill="#7856FF"/>
<path d="M-167.342 837.265L-47.8876 1044.17L422.515 772.578C440.123 734.709 461.041 698.699 485.161 664.766C535.647 593.76 598.371 534.627 671.853 488.698L567.819 308.506C471.314 433.474 353.382 536.625 216.668 615.556L-167.342 837.265Z" fill="#1B0B3B"/>
<path d="M-102.087 63.4559L-486.097 285.164L-216.605 751.938C-215.429 746.405 -214.222 740.883 -212.977 735.38C-193.996 651.525 -167.034 569.76 -132.841 492.361C-98.2774 414.142 -56.0062 339.676 -7.20966 271.039C89.7931 134.611 210.893 22.1469 353.006 -63.5607L202.493 -324.257C180.401 -251.987 147.628 -185.059 104.716 -124.701C49.6887 -47.3027 -19.8988 16.0045 -102.087 63.4559Z" fill="#7856FF"/>
<path d="M-132.841 492.361C-167.033 569.76 -193.996 651.526 -212.977 735.38C-214.222 740.883 -215.429 746.406 -216.605 751.938L-167.342 837.265L216.668 615.557C353.382 536.625 471.314 433.475 567.819 308.506L353.006 -63.5605C210.893 22.1471 89.7932 134.611 -7.20957 271.039C-56.0061 339.676 -98.2773 414.142 -132.841 492.361Z" fill="#5028C0"/>
</svg>
