<svg width="30" height="30" viewBox="0 0 30 30" fill="none" xmlns="http://www.w3.org/2000/svg">
<path fill-rule="evenodd" clip-rule="evenodd" d="M27.9963 0.616675C29.0191 0.207545 30.0342 1.22256 29.625 2.24541L18.9517 28.9287C18.5182 30.0125 16.9688 29.9669 16.5996 28.8596L17.6485 28.51L16.5996 28.8596L12.7953 17.4464L1.38213 13.6421L1.73175 12.5932L1.38213 13.6421C0.27477 13.2729 0.229268 11.7235 1.31301 11.29L1.72362 12.3165L1.31301 11.29L27.9963 0.616675ZM14.9342 16.871L17.8702 25.6788L25.6993 6.10593L14.9342 16.871ZM24.1358 4.54239L4.5629 12.3715L13.3707 15.3075L24.1358 4.54239ZM16.8987 28.1075C16.8989 28.107 16.8991 28.1065 16.8993 28.1061L16.8987 28.1075Z" fill="white"/>
</svg>
