<svg width="20" height="20" viewBox="0 0 20 20" fill="none" xmlns="http://www.w3.org/2000/svg">
<path d="M4.75491 11.369H6.31003C6.89452 11.369 7.46628 11.5398 7.95506 11.8603L9.15742 12.6487C9.48328 12.8624 9.86445 12.9762 10.2541 12.9762H11.5266C12.1183 12.9762 12.598 13.4559 12.598 14.0476V14.0476M9.65687 15.119H11.5266C12.1183 15.119 12.598 14.6393 12.598 14.0476V14.0476M12.598 14.0476L16.145 13.1862C16.6305 13.0683 17.1237 13.3495 17.2694 13.8274V13.8274C17.4028 14.2647 17.2032 14.7347 16.7959 14.9424L10.9225 17.9379C10.4279 18.1901 9.85083 18.2254 9.32924 18.0354L5.7353 16.7262H4.75491M12.0833 3.05554H8.95833C8.57156 3.05554 8.20063 3.20187 7.92714 3.46234C7.65364 3.72281 7.5 4.07608 7.5 4.44443C7.5 4.81279 7.65364 5.16606 7.92714 5.42653C8.20063 5.68699 8.57156 5.83332 8.95833 5.83332H11.0417C11.4284 5.83332 11.7994 5.97965 12.0729 6.24012C12.3464 6.50059 12.5 6.85386 12.5 7.22221C12.5 7.59057 12.3464 7.94384 12.0729 8.20431C11.7994 8.46477 11.4284 8.6111 11.0417 8.6111H7.5M10 1.66666V9.99999M3.97492 17.2619V17.2619C4.4057 17.2619 4.75491 16.9127 4.75491 16.4819V11.8333C4.75491 11.281 4.3072 10.8333 3.75491 10.8333H3.62942C3.0291 10.8333 2.56408 11.3585 2.63678 11.9544L3.20068 16.5764C3.24842 16.9677 3.58068 17.2619 3.97492 17.2619Z" stroke="white" stroke-width="1.5" stroke-linecap="round"/>
</svg>
