<svg width="16" height="16" viewBox="0 0 16 16" fill="none" xmlns="http://www.w3.org/2000/svg">
<path d="M4.66667 4.66667H11.3333M4.66667 8H11.3333M4.66667 11.3333H8.66667M13.9962 2.00002L13.5558 1.75684L13.1096 1.50782C13.01 1.45142 12.8978 1.4218 12.7837 1.4218C12.6695 1.4218 12.5573 1.45142 12.4577 1.50782L11.9192 1.81715C11.8183 1.8737 11.7048 1.90336 11.5894 1.90336C11.474 1.90336 11.3606 1.8737 11.2596 1.81715L10.7135 1.50782C10.6149 1.45138 10.5036 1.42172 10.3904 1.42172C10.2772 1.42172 10.1658 1.45138 10.0673 1.50782L9.52115 1.81715C9.42297 1.8736 9.31197 1.90328 9.19904 1.90328C9.08611 1.90328 8.97511 1.8736 8.87692 1.81715L8.32308 1.50782C8.22372 1.45177 8.11184 1.42235 7.99808 1.42235C7.88431 1.42235 7.77244 1.45177 7.67308 1.50782L7.125 1.81715C7.02541 1.87355 6.91318 1.90317 6.79904 1.90317C6.6849 1.90317 6.57267 1.87355 6.47308 1.81715L5.92692 1.50782C5.82839 1.45138 5.71708 1.42172 5.60385 1.42172C5.49061 1.42172 5.37931 1.45138 5.28077 1.50782L4.72308 1.81715C4.6256 1.87363 4.51522 1.90334 4.40288 1.90334C4.29055 1.90334 4.18017 1.87363 4.08269 1.81715L3.51731 1.50782C3.42019 1.45132 3.31011 1.42159 3.19808 1.42159C3.08604 1.42159 2.97597 1.45132 2.87885 1.50782L2.45192 1.74322L2 2.00002V14L2.88462 14.4903C2.98315 14.5467 3.09446 14.5764 3.20769 14.5764C3.32093 14.5764 3.43223 14.5467 3.53077 14.4903L4.07692 14.1945C4.17786 14.138 4.29135 14.1083 4.40673 14.1083C4.52211 14.1083 4.6356 14.138 4.73654 14.1945L5.28077 14.5039C5.37931 14.5603 5.49061 14.59 5.60385 14.59C5.71708 14.59 5.82839 14.5603 5.92692 14.5039L6.47308 14.1945C6.57162 14.1381 6.68292 14.1084 6.79615 14.1084C6.90939 14.1084 7.02069 14.1381 7.11923 14.1945L7.67308 14.4941C7.77162 14.5506 7.88292 14.5802 7.99615 14.5802C8.10939 14.5802 8.22069 14.5506 8.31923 14.4941L8.86923 14.1945C8.96883 14.1381 9.08105 14.1085 9.19519 14.1085C9.30933 14.1085 9.42156 14.1381 9.52115 14.1945L10.0673 14.5039C10.1658 14.5603 10.2772 14.59 10.3904 14.59C10.5036 14.59 10.6149 14.5603 10.7135 14.5039L11.2731 14.1945C11.3693 14.1395 11.4779 14.1105 11.5885 14.1105C11.699 14.1105 11.8076 14.1395 11.9038 14.1945L12.4808 14.4941C12.5782 14.5506 12.6886 14.5803 12.801 14.5803C12.9133 14.5803 13.0237 14.5506 13.1212 14.4941L14 14.0097V2.00002H13.9962Z" stroke="white" stroke-width="1.5" stroke-linecap="round" stroke-linejoin="round"/>
</svg>
