<svg width="26" height="26" viewBox="0 0 26 26" fill="none" xmlns="http://www.w3.org/2000/svg">
<path d="M0.906982 16.6278C0.906982 15.2921 1.98983 14.2092 3.32559 14.2092H7.21263C7.54657 14.2092 7.81178 14.4839 7.86225 14.814C8.57099 19.4495 17.429 19.4495 18.1378 14.814C18.1882 14.4839 18.4534 14.2092 18.7874 14.2092H22.6744C24.0102 14.2092 25.093 15.2921 25.093 16.6278V22.6743C25.093 24.0101 24.0102 25.093 22.6744 25.093H3.32559C1.98983 25.093 0.906982 24.0101 0.906982 22.6743V16.6278Z" fill="black"/>
<path fill-rule="evenodd" clip-rule="evenodd" d="M3.32558 15.1162C2.49073 15.1162 1.81395 15.793 1.81395 16.6278V22.6743C1.81395 23.5092 2.49073 24.186 3.32558 24.186H22.6744C23.5093 24.186 24.186 23.5092 24.186 22.6743V16.6278C24.186 15.793 23.5093 15.1162 22.6744 15.1162H19.0061C18.4658 17.9829 15.5185 19.1976 13 19.1976C10.4815 19.1976 7.53425 17.9829 6.99386 15.1162H3.32558ZM0 16.6278C0 14.7912 1.48891 13.3022 3.32558 13.3022H7.21262C8.08098 13.3022 8.65457 13.9952 8.7588 14.6769C9.01112 16.3271 10.7829 17.3836 13 17.3836C15.2171 17.3836 16.9889 16.3271 17.2412 14.6769C17.3454 13.9952 17.919 13.3022 18.7874 13.3022H22.6744C24.5111 13.3022 26 14.7912 26 16.6278V22.6743C26 24.511 24.5111 25.9999 22.6744 25.9999H3.32558C1.48891 25.9999 0 24.511 0 22.6743V16.6278Z" fill="black"/>
<path fill-rule="evenodd" clip-rule="evenodd" d="M13 12.6978C12.4991 12.6978 12.093 12.2917 12.093 11.7908L12.093 0.907057C12.093 0.406147 12.4991 7.9965e-05 13 8.00161e-05C13.5009 8.00672e-05 13.907 0.406147 13.907 0.907057L13.907 11.7908C13.907 12.2917 13.5009 12.6978 13 12.6978Z" fill="black"/>
<path fill-rule="evenodd" clip-rule="evenodd" d="M13 11.4884L10.0976 7.61866C9.7971 7.21794 9.22861 7.13672 8.82788 7.43727C8.42715 7.73781 8.34594 8.30631 8.64649 8.70704L12.1776 13.4153C12.5888 13.9635 13.4111 13.9635 13.8223 13.4153L17.3535 8.70704C17.654 8.30631 17.5728 7.73782 17.1721 7.43727C16.7713 7.13672 16.2028 7.21794 15.9023 7.61866L13 11.4884Z" fill="black"/>
</svg>
