<svg width="35" height="35" viewBox="0 0 35 35" fill="none" xmlns="http://www.w3.org/2000/svg">
<path d="M14.1096 27.367L5.93928 29.4635C5.37437 29.6085 4.86076 29.0949 5.00571 28.5299L7.10211 20.3594C7.13626 20.2263 7.20553 20.1048 7.30269 20.0077L22.5486 4.76113C22.8482 4.46159 23.3338 4.46159 23.6333 4.76112L29.7073 10.8351C30.0068 11.1346 30.0068 11.6203 29.7073 11.9198L14.4613 27.1664C14.3642 27.2635 14.2427 27.3328 14.1096 27.367Z" fill="white"/>
<path fill-rule="evenodd" clip-rule="evenodd" d="M24.4468 3.94753L30.5208 10.0215C31.2696 10.7703 31.2696 11.9845 30.5208 12.7334L15.2748 27.9799C15.032 28.2228 14.7283 28.396 14.3956 28.4814L6.22523 30.578C4.81295 30.9404 3.52893 29.6563 3.89131 28.244L5.98771 20.0734C6.07309 19.7407 6.24627 19.437 6.48917 19.1941L21.7351 3.94755C22.4839 3.1987 23.698 3.19869 24.4468 3.94753ZM23.091 5.84585L8.19042 20.747L6.28122 28.188L13.722 26.2786L28.6226 11.3774L23.091 5.84585Z" fill="white"/>
<path fill-rule="evenodd" clip-rule="evenodd" d="M23.9064 10.5636C24.3558 11.0129 24.3558 11.7414 23.9065 12.1907L14.7027 21.3949C14.2534 21.8442 13.5249 21.8442 13.0756 21.3949C12.6263 20.9456 12.6263 20.2172 13.0756 19.7679L22.2794 10.5637C22.7287 10.1144 23.4571 10.1144 23.9064 10.5636Z" fill="#2C426A"/>
<path fill-rule="evenodd" clip-rule="evenodd" d="M10.2614 22.5807C10.7107 22.1314 11.4391 22.1314 11.8884 22.5807L13.4225 24.1147C13.8718 24.564 13.8718 25.2925 13.4225 25.7418C12.9732 26.1911 12.2447 26.1911 11.7954 25.7418L10.2614 24.2078C9.81205 23.7585 9.81205 23.03 10.2614 22.5807Z" fill="white"/>
<path fill-rule="evenodd" clip-rule="evenodd" d="M26.3704 0.336964C26.8197 -0.112334 27.5482 -0.112319 27.9975 0.336996L34.1333 6.47311C34.5826 6.92243 34.5826 7.6509 34.1333 8.10019C33.684 8.54949 32.9555 8.54948 32.5062 8.10016L26.3704 1.96405C25.9211 1.51473 25.9211 0.786261 26.3704 0.336964Z" fill="white"/>
</svg>
