<svg width="24" height="24" viewBox="0 0 24 24" fill="none" xmlns="http://www.w3.org/2000/svg">
<path fill-rule="evenodd" clip-rule="evenodd" d="M14.4697 9.53021C14.1768 9.23731 14.1768 8.76244 14.4697 8.46955L20.4697 2.46955C20.7626 2.17665 21.2374 2.17665 21.5303 2.46955C21.8232 2.76244 21.8232 3.23731 21.5303 3.53021L15.5303 9.53021C15.2374 9.8231 14.7626 9.8231 14.4697 9.53021Z" fill="black"/>
<path fill-rule="evenodd" clip-rule="evenodd" d="M18.75 9.99988C18.75 10.4141 18.4142 10.7499 18 10.7499L14.1 10.7499C13.6306 10.7499 13.25 10.3693 13.25 9.89988L13.25 5.99988C13.25 5.58566 13.5858 5.24988 14 5.24988C14.4142 5.24988 14.75 5.58566 14.75 5.99988L14.75 9.24988L18 9.24988C18.4142 9.24988 18.75 9.58566 18.75 9.99988Z" fill="black"/>
<path fill-rule="evenodd" clip-rule="evenodd" d="M9.52984 14.4695C9.82274 14.7624 9.82274 15.2373 9.52984 15.5302L3.52984 21.5302C3.23695 21.8231 2.76207 21.8231 2.46918 21.5302C2.17629 21.2373 2.17629 20.7624 2.46918 20.4695L8.46918 14.4695C8.76207 14.1767 9.23695 14.1767 9.52984 14.4695Z" fill="black"/>
<path fill-rule="evenodd" clip-rule="evenodd" d="M5.24951 13.9999C5.24951 13.5857 5.5853 13.2499 5.99951 13.2499L9.89951 13.2499C10.369 13.2499 10.7495 13.6304 10.7495 14.0999L10.7495 17.9999C10.7495 18.4141 10.4137 18.7499 9.99951 18.7499C9.5853 18.7499 9.24951 18.4141 9.24951 17.9999L9.24951 14.7499L5.99951 14.7499C5.5853 14.7499 5.24951 14.4141 5.24951 13.9999Z" fill="black"/>
</svg>
