<svg width="30" height="22" viewBox="0 0 30 22" fill="none" xmlns="http://www.w3.org/2000/svg">
<path d="M15.0001 14.1429C16.7364 14.1429 18.144 12.7358 18.144 11C18.144 9.26425 16.7364 7.85714 15.0001 7.85714C13.2637 7.85714 11.8561 9.26425 11.8561 11C11.8561 12.7358 13.2637 14.1429 15.0001 14.1429Z" fill="#939292"/>
<path fill-rule="evenodd" clip-rule="evenodd" d="M0 11.0001C2.00308 4.62458 7.9613 0 15 0C22.0387 0 27.9969 4.62452 30 10.9999C27.9969 17.3754 22.0387 22 15 22C7.96131 22 2.00312 17.3755 0 11.0001ZM21.2879 11C21.2879 14.4715 18.4728 17.2857 15.0001 17.2857C11.5274 17.2857 8.71222 14.4715 8.71222 11C8.71222 7.5285 11.5274 4.71429 15.0001 4.71429C18.4728 4.71429 21.2879 7.5285 21.2879 11Z" fill="#939292"/>
</svg>
