<svg width="25" height="28" viewBox="0 0 25 28" fill="none" xmlns="http://www.w3.org/2000/svg">
<path d="M0.942322 3.45514C0.942322 2.06735 2.06735 0.942322 3.45514 0.942322H15.759C15.9256 0.942322 16.0854 1.00851 16.2032 1.12632L23.3737 8.29679C23.4915 8.4146 23.5577 8.57438 23.5577 8.74099V23.5577C23.5577 24.9455 22.4327 26.0705 21.0449 26.0705H3.45514C2.06735 26.0705 0.942322 24.9455 0.942322 23.5577V3.45514Z" fill="white"/>
<path fill-rule="evenodd" clip-rule="evenodd" d="M3.45513 1.88462C2.58776 1.88462 1.88462 2.58776 1.88462 3.45513V23.5577C1.88462 24.4251 2.58776 25.1282 3.45513 25.1282H21.0449C21.9122 25.1282 22.6154 24.4251 22.6154 23.5577V8.87109L15.6289 1.88462H3.45513ZM0 3.45513C0 1.54691 1.54691 0 3.45513 0H15.759C16.1755 0 16.575 0.165465 16.8695 0.459993L24.04 7.63046C24.3345 7.92499 24.5 8.32445 24.5 8.74098V23.5577C24.5 25.4659 22.9531 27.0128 21.0449 27.0128H3.45513C1.54691 27.0128 0 25.4659 0 23.5577V3.45513Z" fill="white"/>
<path d="M23.3432 8.2663L16.2337 1.1568C16.1546 1.07765 16.0192 1.13371 16.0192 1.24564V8.35514C16.0192 8.42453 16.0755 8.48078 16.1449 8.48078H23.2544C23.3663 8.48078 23.4224 8.34545 23.3432 8.2663Z" fill="#136FD4"/>
<path fill-rule="evenodd" clip-rule="evenodd" d="M15 1.24563C15 0.294185 16.1503 -0.182297 16.8231 0.490473L23.9326 7.59997C24.6054 8.27274 24.1289 9.42307 23.1774 9.42307H16.0679C15.4781 9.42307 15 8.94493 15 8.35512V1.24563ZM16.8846 3.21723V7.53846H21.2058L16.8846 3.21723Z" fill="white"/>
<path fill-rule="evenodd" clip-rule="evenodd" d="M6.28204 13.5064C6.28204 12.986 6.70393 12.5641 7.22435 12.5641H17.2756C17.7961 12.5641 18.2179 12.986 18.2179 13.5064C18.2179 14.0268 17.7961 14.4487 17.2756 14.4487H7.22435C6.70393 14.4487 6.28204 14.0268 6.28204 13.5064Z" fill="#1372F0"/>
<path fill-rule="evenodd" clip-rule="evenodd" d="M6.28204 18.532C6.28204 18.0116 6.70393 17.5897 7.22435 17.5897H17.2756C17.7961 17.5897 18.2179 18.0116 18.2179 18.532C18.2179 19.0525 17.7961 19.4743 17.2756 19.4743H7.22435C6.70393 19.4743 6.28204 19.0525 6.28204 18.532Z" fill="#1372F0"/>
</svg>
