<svg width="27" height="30" viewBox="0 0 27 30" fill="none" xmlns="http://www.w3.org/2000/svg">
<path d="M18.1184 9.82898C18.1184 12.9683 15.5735 15.5132 12.4342 15.5132C9.2949 15.5132 6.75 12.9683 6.75 9.82898C6.75 6.68968 9.2949 4.14478 12.4342 4.14478C15.5735 4.14478 18.1184 6.68968 18.1184 9.82898Z" fill="white"/>
<path fill-rule="evenodd" clip-rule="evenodd" d="M12.4342 5.21056C9.88355 5.21056 7.81581 7.27829 7.81581 9.82897C7.81581 12.3797 9.88355 14.4474 12.4342 14.4474C14.9849 14.4474 17.0526 12.3797 17.0526 9.82897C17.0526 7.27829 14.9849 5.21056 12.4342 5.21056ZM5.68423 9.82897C5.68423 6.10105 8.70631 3.07898 12.4342 3.07898C16.1621 3.07898 19.1842 6.10105 19.1842 9.82897C19.1842 13.5569 16.1621 16.579 12.4342 16.579C8.70631 16.579 5.68423 13.5569 5.68423 9.82897Z" fill="white"/>
<path fill-rule="evenodd" clip-rule="evenodd" d="M19.1842 4.14477C19.1842 3.55615 19.6614 3.07898 20.25 3.07898L25.9342 3.07898C26.5228 3.07898 27 3.55615 27 4.14477C27 4.73339 26.5228 5.21056 25.9342 5.21056L20.25 5.21056C19.6614 5.21056 19.1842 4.73339 19.1842 4.14477Z" fill="white"/>
<path fill-rule="evenodd" clip-rule="evenodd" d="M23.0921 8.05267C22.5034 8.05267 22.0263 7.5755 22.0263 6.98689L22.0263 1.30268C22.0263 0.714064 22.5034 0.236895 23.0921 0.236895C23.6807 0.236895 24.1579 0.714064 24.1579 1.30268L24.1579 6.98689C24.1579 7.5755 23.6807 8.05267 23.0921 8.05267Z" fill="white"/>
<path d="M23.8026 28.3026H1.0658C1.0658 25.4605 3.33948 19.7763 12.4342 19.7763C21.5289 19.7763 23.8026 25.4605 23.8026 28.3026Z" fill="white"/>
<path fill-rule="evenodd" clip-rule="evenodd" d="M2.57065 22.2356C4.51155 20.2139 7.65082 18.7106 12.4342 18.7106C17.2176 18.7106 20.3569 20.2139 22.2978 22.2356C24.2128 24.2304 24.8684 26.6355 24.8684 28.3027C24.8684 28.8913 24.3912 29.3685 23.8026 29.3685H1.06582C0.4772 29.3685 3.05176e-05 28.8913 3.05176e-05 28.3027C3.05176e-05 26.6355 0.655663 24.2304 2.57065 22.2356ZM2.24412 27.2369H22.6243C22.4085 26.1591 21.8572 24.8547 20.7601 23.7118C19.2905 22.181 16.7455 20.8421 12.4342 20.8421C8.12291 20.8421 5.57797 22.181 4.10835 23.7118C3.0112 24.8547 2.45996 26.1591 2.24412 27.2369Z" fill="white"/>
</svg>
