<svg width="19" height="19" viewBox="0 0 19 19" fill="none" xmlns="http://www.w3.org/2000/svg">
<path d="M5.98156 12.7062H13.0186M7.38897 14.4875H11.6112M9.50008 4.5125L10.3699 6.38882L12.3149 6.68971L10.9075 8.15022L11.2397 10.2125L9.50008 9.23882L7.76043 10.2125L8.09267 8.15022L6.68527 6.68971L8.63026 6.38882L9.50008 4.5125ZM5.16675 16.625H13.8334C14.938 16.625 15.8334 15.7296 15.8334 14.625V4.375C15.8334 3.27043 14.938 2.375 13.8334 2.375H5.16675C4.06218 2.375 3.16675 3.27043 3.16675 4.375V14.625C3.16675 15.7296 4.06218 16.625 5.16675 16.625Z" stroke="white" stroke-width="1.5" stroke-linecap="round" stroke-linejoin="round"/>
</svg>
