<svg width="25" height="25" viewBox="0 0 25 25" fill="none" xmlns="http://www.w3.org/2000/svg">
<path d="M22.8334 12.5V17.5C22.8334 20.5 20.8334 22.5 17.8334 22.5H7.83337C4.83337 22.5 2.83337 20.5 2.83337 17.5V12.5C2.83337 9.78 4.47337 7.88 7.02337 7.56C7.28337 7.52 7.55337 7.5 7.83337 7.5H17.8334C18.0934 7.5 18.3434 7.50999 18.5834 7.54999C21.1634 7.84999 22.8334 9.76 22.8334 12.5Z" stroke="#9DB2CE" stroke-width="1.5" stroke-linecap="round" stroke-linejoin="round"/>
<path d="M18.5848 7.55C18.3448 7.51 18.0948 7.50001 17.8348 7.50001H7.83478C7.55478 7.50001 7.28478 7.52001 7.02478 7.56001C7.16478 7.28001 7.36478 7.02001 7.60478 6.78001L10.8548 3.52C12.2248 2.16 14.4448 2.16 15.8148 3.52L17.5648 5.29002C18.2048 5.92002 18.5448 6.72 18.5848 7.55Z" stroke="#9DB2CE" stroke-width="1.5" stroke-linecap="round" stroke-linejoin="round"/>
<path d="M22.8334 13H19.8334C18.7334 13 17.8334 13.9 17.8334 15C17.8334 16.1 18.7334 17 19.8334 17H22.8334" stroke="#9DB2CE" stroke-width="1.5" stroke-linecap="round" stroke-linejoin="round"/>
</svg>
